<?xml version="1.0"?>
<svg xmlns="http://www.w3.org/2000/svg" xmlns:xlink="http://www.w3.org/1999/xlink" version="1.1" id="Capa_1" x="0px" y="0px" viewBox="0 0 512 512" style="enable-background:new 0 0 512 512;" xml:space="preserve" width="512px" height="512px"><g><g>
	<g>
		<circle style="fill:#FFE955;" cx="256" cy="256" r="256" data-original="#FFE955"/>
		<path style="fill:#FFD112;" d="M512,256c0,141.38-114.62,256-256,256S0,397.38,0,256c0-46.22,12.25-89.57,33.68-127    C77.8,206.07,160.84,258,256,258s178.21-51.93,222.32-129C499.75,166.43,512,209.78,512,256z" data-original="#FFD112"/>
		<path style="fill:#FF9F00;" d="M481.26,377.7v0.01C437.97,457.68,353.32,512,256,512S74.03,457.68,30.74,377.71v-0.01H481.26z" data-original="#FF9F00"/>
	</g>
	<g>
		<g>
			<g>
				<g>
					<circle style="fill:#FFFFFF;" cx="256" cy="160.461" r="76.352" data-original="#FFFFFF"/>
				</g>
				<g>
					<g>
						<g>
							<path style="fill:#0F9BE8;" d="M298.809,242.773v8.262c-1.961,1.553-4.021,3.007-6.158,4.34         c-0.628,0.397-1.256,0.782-1.895,1.157c-2.346,1.366-4.77,2.611-7.282,3.701c-0.683,0.297-1.388,0.584-2.082,0.87         c-3.514,1.388-7.161,2.501-10.928,3.305c-1.509,0.32-3.029,0.584-4.572,0.815c-0.771,0.11-1.553,0.209-2.336,0.286         c-2.479,0.275-5.001,0.408-7.557,0.408c-2.556,0-5.079-0.132-7.557-0.408c-0.782-0.077-1.564-0.176-2.335-0.286         c-6.158-0.892-12.063-2.589-17.582-4.99c-5.53-2.402-10.675-5.508-15.335-9.199v-8.262c0-0.507,0.011-1.014,0.022-1.52         c0.011-0.154,0.022-0.32,0.033-0.485c0.022-0.341,0.033-0.683,0.055-1.024c0.022-0.22,0.044-0.43,0.066-0.65         c0.033-0.286,0.055-0.562,0.088-0.848c0.022-0.253,0.066-0.507,0.099-0.76c0.033-0.242,0.055-0.474,0.099-0.716         c0.044-0.275,0.099-0.551,0.143-0.826c0.033-0.22,0.066-0.43,0.11-0.639c0.055-0.286,0.121-0.573,0.187-0.859         c0.044-0.198,0.077-0.397,0.121-0.595c0.077-0.297,0.154-0.595,0.231-0.903c0.044-0.176,0.088-0.352,0.132-0.518         c0.088-0.319,0.187-0.639,0.286-0.947c0.044-0.154,0.088-0.308,0.132-0.463c0.11-0.33,0.22-0.661,0.33-0.98         c0.044-0.132,0.088-0.275,0.143-0.418c0.121-0.331,0.242-0.661,0.375-1.003c0.044-0.121,0.088-0.242,0.143-0.363         c0.132-0.342,0.275-0.683,0.43-1.025c0.044-0.099,0.088-0.209,0.132-0.319c0.154-0.352,0.33-0.705,0.496-1.058         c0.044-0.077,0.077-0.165,0.121-0.253c0.176-0.363,0.364-0.727,0.551-1.08c0.044-0.077,0.077-0.143,0.11-0.22         c0.198-0.364,0.408-0.738,0.617-1.102c0.033-0.055,0.066-0.11,0.099-0.165c0.209-0.363,0.441-0.738,0.672-1.102         c0.022-0.044,0.055-0.088,0.077-0.132c0.242-0.375,0.485-0.749,0.738-1.113c0.022-0.033,0.044-0.066,0.066-0.099         c0.253-0.375,0.529-0.738,0.793-1.113c0.022-0.022,0.033-0.044,0.055-0.066c0.275-0.375,0.562-0.738,0.859-1.113         c0.011-0.011,0.011-0.011,0.022-0.022c0.308-0.375,0.617-0.749,0.925-1.113c0,0,0,0,0.011,0         c2.06-2.391,4.418-4.528,7.028-6.356c2.611-1.829,5.475-3.371,8.549-4.539c0.11-0.044,0.231-0.099,0.342-0.143l1.818-0.672         h31l1.818,0.672c0.11,0.044,0.231,0.099,0.341,0.143c6.147,2.346,11.446,6.125,15.577,10.895h0.011         c0.308,0.363,0.617,0.738,0.925,1.102c0.011,0.022,0.011,0.033,0.022,0.044c0.297,0.363,0.584,0.727,0.859,1.113         c0.022,0.011,0.033,0.033,0.044,0.055c0.275,0.375,0.54,0.738,0.804,1.113c0.022,0.033,0.044,0.066,0.066,0.099         c0.253,0.364,0.496,0.738,0.738,1.113c0.022,0.044,0.055,0.088,0.077,0.132c0.231,0.363,0.463,0.738,0.672,1.102         c0.033,0.066,0.066,0.121,0.099,0.176c0.209,0.364,0.419,0.727,0.617,1.091c0.033,0.077,0.077,0.154,0.11,0.22         c0.187,0.364,0.375,0.716,0.551,1.08c0.044,0.088,0.077,0.176,0.121,0.264c0.176,0.353,0.342,0.694,0.496,1.047         c0.044,0.11,0.088,0.22,0.132,0.319c0.143,0.342,0.297,0.683,0.43,1.025c0.055,0.121,0.099,0.242,0.143,0.363         c0.132,0.342,0.253,0.672,0.375,1.003c0.055,0.143,0.099,0.275,0.143,0.418c0.11,0.32,0.22,0.65,0.33,0.98         c0.044,0.154,0.088,0.308,0.132,0.463c0.099,0.32,0.198,0.628,0.286,0.947c0.044,0.176,0.088,0.352,0.132,0.529         c0.077,0.297,0.154,0.595,0.231,0.892c0.044,0.198,0.077,0.408,0.121,0.606c0.066,0.286,0.132,0.562,0.187,0.848         c0.044,0.22,0.077,0.441,0.11,0.65c0.055,0.275,0.099,0.54,0.143,0.815c0.044,0.242,0.066,0.474,0.099,0.716         c0.033,0.253,0.077,0.507,0.099,0.76c0.033,0.275,0.055,0.54,0.088,0.815c0.022,0.231,0.044,0.452,0.066,0.683         c0.022,0.331,0.033,0.661,0.055,0.991c0.011,0.176,0.022,0.353,0.033,0.518C298.798,241.76,298.809,242.267,298.809,242.773z         " data-original="#0F9BE8"/>
							<path style="fill:#0066E8;" d="M298.809,242.773v8.262c-1.961,1.553-4.021,3.007-6.158,4.34         c-0.628,0.397-1.256,0.782-1.895,1.157c-2.346,1.366-4.77,2.611-7.282,3.701c-0.683,0.297-1.388,0.584-2.082,0.87         c-3.514,1.388-7.161,2.501-10.928,3.305c-1.509,0.32-3.029,0.584-4.572,0.815c-0.771,0.11-1.553,0.209-2.336,0.286         c-2.479,0.275-5.001,0.408-7.557,0.408V205.45h15.5l1.818,0.672c0.11,0.044,0.231,0.099,0.341,0.143         c6.147,2.346,11.446,6.125,15.577,10.895h0.011c0.308,0.363,0.617,0.738,0.925,1.102c0.011,0.022,0.011,0.033,0.022,0.044         c0.297,0.363,0.584,0.727,0.859,1.113c0.022,0.011,0.033,0.033,0.044,0.055c0.275,0.375,0.54,0.738,0.804,1.113         c0.022,0.033,0.044,0.066,0.066,0.099c0.253,0.364,0.496,0.738,0.738,1.113c0.022,0.044,0.055,0.088,0.077,0.132         c0.231,0.363,0.463,0.738,0.672,1.102c0.033,0.066,0.066,0.121,0.099,0.176c0.209,0.364,0.419,0.727,0.617,1.091         c0.033,0.077,0.077,0.154,0.11,0.22c0.187,0.364,0.375,0.716,0.551,1.08c0.044,0.088,0.077,0.176,0.121,0.264         c0.176,0.353,0.342,0.694,0.496,1.047c0.044,0.11,0.088,0.22,0.132,0.319c0.143,0.342,0.297,0.683,0.43,1.025         c0.055,0.121,0.099,0.242,0.143,0.363c0.132,0.342,0.253,0.672,0.375,1.003c0.055,0.143,0.099,0.275,0.143,0.418         c0.11,0.32,0.22,0.65,0.33,0.98c0.044,0.154,0.088,0.308,0.132,0.463c0.099,0.32,0.198,0.628,0.286,0.947         c0.044,0.176,0.088,0.352,0.132,0.529c0.077,0.297,0.154,0.595,0.231,0.892c0.044,0.198,0.077,0.408,0.121,0.606         c0.066,0.286,0.132,0.562,0.187,0.848c0.044,0.22,0.077,0.441,0.11,0.65c0.055,0.275,0.099,0.54,0.143,0.815         c0.044,0.242,0.066,0.474,0.099,0.716c0.033,0.253,0.077,0.507,0.099,0.76c0.033,0.275,0.055,0.54,0.088,0.815         c0.022,0.231,0.044,0.452,0.066,0.683c0.022,0.331,0.033,0.661,0.055,0.991c0.011,0.176,0.022,0.353,0.033,0.518         C298.798,241.76,298.809,242.267,298.809,242.773z" data-original="#0066E8"/>
						</g>
						<path style="fill:#E3835A;" d="M256,212.795L256,212.795c-6.336,0-11.473-5.137-11.473-11.473v-24.032h22.946v24.032        C267.473,207.658,262.336,212.795,256,212.795z" data-original="#E3835A"/>
						<g>
							<path style="fill:#FFA87A;" d="M222.478,160.282c-4.555,0-8.248,3.693-8.248,8.248c0,6.341,5.14,11.481,11.481,11.481h5.202         v-19.549C230.913,160.461,222.995,160.282,222.478,160.282z" data-original="#FFA87A"/>
							<path style="fill:#CC5A28;" d="M289.522,160.282c4.555,0,8.248,3.693,8.248,8.248c0,6.341-5.14,11.481-11.481,11.481h-5.202         v-19.549C281.087,160.461,289.005,160.282,289.522,160.282z" data-original="#CC5A28"/>
							<path style="fill:#FFA87A;" d="M287,163.5c0,8.714-2.093,16.932-5.806,24.192c-4.847,9.463-14.586,15.423-25.194,15.489         h-0.187c-10.697,0-20.512-5.971-25.382-15.489c-3.724-7.26-5.817-15.478-5.817-24.192c0-2.181,0.132-4.318,0.386-6.434         c0.077-0.694,0.176-1.388,0.286-2.071c2.798-17.362,16.778-26.01,30.714-25.921c1.84,0.011,3.668,0.176,5.486,0.496         c4.34,0.749,8.538,2.368,12.206,4.869c6.312,4.274,11.127,11.138,12.636,20.557c0.341,2.159,0.573,4.362,0.639,6.61         C287,162.233,287,162.861,287,163.5z" data-original="#FFA87A"/>
							<path style="fill:#EA824E;" d="M287,163.5c0,8.714-2.093,16.932-5.806,24.192c-4.847,9.463-14.586,15.423-25.194,15.489         v-74.107c1.84,0.011,3.668,0.176,5.486,0.496c4.34,0.749,8.538,2.368,12.206,4.869c6.312,4.274,11.127,11.138,12.636,20.557         c0.341,2.159,0.573,4.362,0.639,6.61C287,162.233,287,162.861,287,163.5z" data-original="#EA824E"/>
							<path style="fill:#474F6F;" d="M275.565,127.862c-2.159,14.475-8.813,25.007-19.565,30.923         c-4.693,2.6-10.168,4.307-16.392,5.079c-5.585,0.694-11.721,0.011-16.844-2.225c-1.619-0.705-2.589-2.402-2.413-4.153         c0-0.011,0.011-0.022,0.011-0.033c2.611-24.291,19.135-36.53,35.638-36.31c1.752,0.011,3.514,0.176,5.244,0.485         C266.3,122.497,271.214,124.568,275.565,127.862z" data-original="#474F6F"/>
							<path style="fill:#323B5A;" d="M275.565,127.862c-2.159,14.475-8.813,25.007-19.565,30.923v-37.643         c1.752,0.011,3.514,0.176,5.244,0.485C266.3,122.497,271.214,124.568,275.565,127.862z" data-original="#323B5A"/>
							<path style="fill:#323B5A;" d="M287.241,162.81c-22.716-0.117-29.728-19.714-25.994-41.187         c13.723,2.38,26.378,13.581,29.729,33.814c0.185,1.117,0.311,1.98,0.404,2.79         C291.664,160.687,289.716,162.822,287.241,162.81z" data-original="#323B5A"/>
						</g>
					</g>
				</g>
			</g>
		</g>
		<g>
			<g>
				<polygon style="fill:#FFD112;" points="273.29,83.167 277.38,106.977 256,95.737 234.62,106.977 238.71,83.167 221.41,66.317       245.31,62.837 256,41.187 266.69,62.837 290.59,66.317     " data-original="#FFD112"/>
				<polygon style="fill:#FF9F00;" points="273.29,83.167 277.38,106.977 256,95.737 256,41.187 266.69,62.837 290.59,66.317           " data-original="#FF9F00"/>
			</g>
			<g>
				<polygon style="fill:#FF9F00;" points="264.008,78.29 265.902,89.317 256,84.111 246.098,89.317 247.992,78.29 239.98,70.486       251.049,68.874 256,58.847 260.951,68.874 272.02,70.486     " data-original="#FF9F00"/>
				<polygon style="fill:#ED771B;" points="264.008,78.29 265.902,89.317 256,84.111 256,58.847 260.951,68.874 272.02,70.486           " data-original="#ED771B"/>
			</g>
		</g>
		<g>
			<path style="fill:#FFFFFF;" d="M326.284,271.77v15.762c0,4.439-3.598,8.037-8.036,8.037H194.766     c-4.439,0-8.037-3.598-8.037-8.037V271.77c0-4.439,3.598-8.037,8.037-8.037h123.482     C322.686,263.733,326.284,267.331,326.284,271.77z" data-original="#FFFFFF"/>
			<path style="fill:#D0F6FF;" d="M326.284,271.77v15.762c0,4.439-3.598,8.037-8.036,8.037h-61.742v-31.836h61.742     C322.686,263.733,326.284,267.331,326.284,271.77z" data-original="#D0F6FF"/>
			<g>
				<path style="fill:#474F6F;" d="M205.449,271.771l-0.088,3.863l3.293-1.976l2.415,4.171l-3.468,1.8l3.468,1.888l-2.415,4.215      l-3.337-2.064l0.132,3.863h-4.829l0.132-3.907l-3.337,2.02l-2.415-4.127l3.424-1.888l-3.424-1.8l2.415-4.258l3.293,2.063      l-0.088-3.863H205.449z" data-original="#474F6F"/>
				<path style="fill:#474F6F;" d="M223.273,271.771l-0.088,3.863l3.293-1.976l2.415,4.171l-3.468,1.8l3.468,1.888l-2.415,4.215      l-3.337-2.064l0.132,3.863h-4.829l0.132-3.907l-3.337,2.02l-2.415-4.127l3.424-1.888l-3.424-1.8l2.415-4.258l3.293,2.063      l-0.088-3.863H223.273z" data-original="#474F6F"/>
				<path style="fill:#474F6F;" d="M241.098,271.771l-0.088,3.863l3.293-1.976l2.415,4.171l-3.468,1.8l3.468,1.888l-2.415,4.215      l-3.337-2.064l0.132,3.863h-4.829l0.132-3.907l-3.336,2.02l-2.415-4.127l3.424-1.888l-3.424-1.8l2.415-4.258l3.293,2.063      l-0.088-3.863H241.098z" data-original="#474F6F"/>
				<path style="fill:#474F6F;" d="M264.542,277.83l-2.415-4.171l-3.293,1.976l0.087-3.864h-4.829l0.087,3.864l-3.293-2.063      l-2.414,4.258l3.424,1.8l-3.424,1.888l2.414,4.126l3.337-2.019l-0.132,3.907h4.829l-0.131-3.864l3.336,2.064l2.415-4.215      l-3.469-1.888L264.542,277.83z" data-original="#474F6F"/>
				<path style="fill:#323B5A;" d="M276.746,271.771l-0.088,3.863l3.293-1.976l2.415,4.171l-3.468,1.8l3.468,1.888l-2.415,4.215      l-3.337-2.064l0.132,3.863h-4.829l0.132-3.907l-3.336,2.02l-2.415-4.127l3.424-1.888l-3.424-1.8l2.415-4.258l3.293,2.063      l-0.088-3.863H276.746z" data-original="#323B5A"/>
				<path style="fill:#323B5A;" d="M294.57,271.771l-0.088,3.863l3.293-1.976l2.415,4.171l-3.468,1.8l3.468,1.888l-2.415,4.215      l-3.337-2.064l0.132,3.863h-4.829l0.132-3.907l-3.336,2.02l-2.415-4.127l3.424-1.888l-3.424-1.8l2.415-4.258l3.293,2.063      l-0.088-3.863H294.57z" data-original="#323B5A"/>
				<path style="fill:#323B5A;" d="M312.394,271.771l-0.088,3.863l3.293-1.976l2.415,4.171l-3.468,1.8l3.468,1.888l-2.415,4.215      l-3.337-2.064l0.132,3.863h-4.829l0.132-3.907l-3.336,2.02l-2.415-4.127l3.424-1.888l-3.424-1.8l2.415-4.258l3.293,2.063      l-0.088-3.863H312.394z" data-original="#323B5A"/>
			</g>
		</g>
		<g>
			<g>
				<path style="fill:#545D7A;" d="M390.6,350.7v123.09C351.49,498.02,305.38,512,256,512c-23.05,0-45.39-3.05-66.64-8.76      c-24.27-6.53-47.11-16.53-67.96-29.45V350.7c0-22.2,18-40.19,40.19-40.19h188.82C372.6,310.51,390.6,328.5,390.6,350.7z" data-original="#545D7A"/>
				<path style="fill:#474F6F;" d="M390.6,350.7v123.09C351.49,498.02,305.38,512,256,512c-23.05,0-45.39-3.05-66.64-8.76V310.51      h161.05C372.6,310.51,390.6,328.5,390.6,350.7z" data-original="#474F6F"/>
				<path style="fill:#323B5A;" d="M390.6,350.7v123.09C351.49,498.02,305.38,512,256,512V310.51h94.41      C372.6,310.51,390.6,328.5,390.6,350.7z" data-original="#323B5A"/>
				<rect x="121.405" y="377.81" style="fill:#474F6F;" width="269.19" height="67.296" data-original="#474F6F"/>
				<rect x="189.361" y="377.81" style="fill:#323B5A;" width="201.234" height="67.296" data-original="#323B5A"/>
				<rect x="256.004" y="377.81" style="fill:#20273A;" width="134.591" height="67.296" data-original="#20273A"/>
			</g>
			<g>
				<g>
					<ellipse style="fill:#DD1265;" cx="292.866" cy="478.863" rx="10.948" ry="10.952" data-original="#DD1265"/>
					<path style="fill:#BA0D5C;" d="M303.816,478.863c0,6.045-4.9,10.952-10.952,10.952v-21.904       C298.916,467.912,303.816,472.819,303.816,478.863z" data-original="#BA0D5C"/>
				</g>
				<g>
					<ellipse style="fill:#FFD112;" cx="323.301" cy="478.863" rx="10.948" ry="10.952" data-original="#FFD112"/>
					<path style="fill:#FF9F00;" d="M334.251,478.863c0,6.045-4.9,10.952-10.952,10.952v-21.904       C329.351,467.912,334.251,472.819,334.251,478.863z" data-original="#FF9F00"/>
				</g>
				<g>
					<ellipse style="fill:#95D600;" cx="354.569" cy="478.863" rx="10.948" ry="10.952" data-original="#95D600"/>
					<path style="fill:#85AF12" d="M365.519,478.863c0,6.045-4.9,10.952-10.952,10.952v-21.904       C360.619,467.912,365.519,472.819,365.519,478.863z" data-original="#85AF12" class="active-path"/>
				</g>
				<rect x="160.314" y="471.393" style="fill:#FFFFFF;" width="58.093" height="14.94" data-original="#FFFFFF"/>
				<rect x="189.361" y="471.393" style="fill:#D0F6FF;" width="29.047" height="14.94" data-original="#D0F6FF"/>
			</g>
			<g>
				<g>
					<ellipse style="fill:#DD1265;" cx="292.866" cy="411.458" rx="10.948" ry="10.952" data-original="#DD1265"/>
					<path style="fill:#BA0D5C;" d="M303.816,411.458c0,6.045-4.9,10.952-10.952,10.952v-21.904       C298.916,400.506,303.816,405.413,303.816,411.458z" data-original="#BA0D5C"/>
				</g>
				<g>
					<ellipse style="fill:#FFD112;" cx="323.301" cy="411.458" rx="10.948" ry="10.952" data-original="#FFD112"/>
					<path style="fill:#FF9F00;" d="M334.251,411.458c0,6.045-4.9,10.952-10.952,10.952v-21.904       C329.351,400.506,334.251,405.413,334.251,411.458z" data-original="#FF9F00"/>
				</g>
				<g>
					<ellipse style="fill:#95D600;" cx="354.569" cy="411.458" rx="10.948" ry="10.952" data-original="#95D600"/>
					<path style="fill:#85AF12" d="M365.519,411.458c0,6.045-4.9,10.952-10.952,10.952v-21.904       C360.619,400.506,365.519,405.413,365.519,411.458z" data-original="#85AF12" class="active-path"/>
				</g>
				<rect x="160.314" y="403.988" style="fill:#FFFFFF;" width="58.093" height="14.94" data-original="#FFFFFF"/>
				<rect x="189.361" y="403.988" style="fill:#D0F6FF;" width="29.047" height="14.94" data-original="#D0F6FF"/>
			</g>
			<g>
				<g>
					<ellipse style="fill:#DD1265;" cx="292.866" cy="344.052" rx="10.948" ry="10.952" data-original="#DD1265"/>
					<path style="fill:#BA0D5C;" d="M303.816,344.052c0,6.045-4.9,10.952-10.952,10.952V333.1       C298.916,333.1,303.816,338.008,303.816,344.052z" data-original="#BA0D5C"/>
				</g>
				<g>
					<ellipse style="fill:#FFD112;" cx="323.301" cy="344.052" rx="10.948" ry="10.952" data-original="#FFD112"/>
					<path style="fill:#FF9F00;" d="M334.251,344.052c0,6.045-4.9,10.952-10.952,10.952V333.1       C329.351,333.1,334.251,338.008,334.251,344.052z" data-original="#FF9F00"/>
				</g>
				<g>
					<ellipse style="fill:#95D600;" cx="354.569" cy="344.052" rx="10.948" ry="10.952" data-original="#95D600"/>
					<path style="fill:#85AF12" d="M365.519,344.052c0,6.045-4.9,10.952-10.952,10.952V333.1       C360.619,333.1,365.519,338.008,365.519,344.052z" data-original="#85AF12" class="active-path"/>
				</g>
				<rect x="160.314" y="336.582" style="fill:#FFFFFF;" width="58.093" height="14.94" data-original="#FFFFFF"/>
				<rect x="189.361" y="336.582" style="fill:#D0F6FF;" width="29.047" height="14.94" data-original="#D0F6FF"/>
			</g>
		</g>
	</g>
</g></g> </svg>

