<?xml version="1.0"?>
<svg xmlns="http://www.w3.org/2000/svg" xmlns:xlink="http://www.w3.org/1999/xlink" version="1.1" id="Capa_1" x="0px" y="0px" viewBox="0 0 512.184 512.184" style="enable-background:new 0 0 512.184 512.184;" xml:space="preserve" width="512px" height="512px"><g><path style="fill:#455A64;" d="M505.344,315.707c-1.888-5.58-7.942-8.573-13.523-6.685c-0.253,0.086-0.503,0.181-0.749,0.285  c-4.822,2.141-10.485,0.369-13.227-4.139c-2.615-4.647-1.288-10.519,3.072-13.589c4.715-3.532,5.674-10.217,2.142-14.932  c-0.165-0.22-0.339-0.434-0.52-0.641c-16.815-19.457-39.622-32.77-64.832-37.845c-2.941-0.603-6,0.081-8.405,1.877  c-2.412,1.785-3.961,4.503-4.267,7.488c-0.259,5.685-5.077,10.083-10.762,9.825c-5.322-0.242-9.582-4.502-9.825-9.825  c-0.306-2.985-1.855-5.703-4.267-7.488c-2.407-1.794-5.464-2.477-8.405-1.877c-25.21,5.075-48.017,18.389-64.832,37.845  c-3.886,4.427-3.447,11.167,0.98,15.053c0.207,0.182,0.421,0.355,0.641,0.52c4.698,3.169,5.938,9.547,2.768,14.245  c-2.861,4.242-8.41,5.727-13.008,3.483c-5.423-2.302-11.685,0.228-13.987,5.651c-0.104,0.246-0.2,0.496-0.285,0.749  c-8.835,24.193-8.835,50.73,0,74.923c1.892,5.579,7.949,8.567,13.528,6.675c0.244-0.083,0.485-0.174,0.723-0.275  c5.102-2.467,11.238-0.33,13.705,4.772c2.209,4.57,0.746,10.068-3.443,12.935c-4.715,3.532-5.674,10.217-2.142,14.932  c0.165,0.22,0.339,0.434,0.52,0.641c16.813,19.459,39.621,32.773,64.832,37.845c2.941,0.603,6-0.08,8.405-1.877  c2.417-1.79,3.967-4.517,4.267-7.509c0.449-5.685,5.421-9.93,11.106-9.481c5.062,0.399,9.082,4.419,9.481,9.481  c0.56,5.462,5.176,9.607,10.667,9.579c0.717,0.005,1.432-0.066,2.133-0.213c25.211-5.072,48.019-18.386,64.832-37.845  c3.886-4.427,3.447-11.167-0.98-15.053c-0.207-0.182-0.421-0.355-0.641-0.52c-4.677-3.201-5.874-9.586-2.673-14.263  c2.866-4.189,8.365-5.653,12.935-3.443c5.427,2.292,11.684-0.25,13.976-5.677c0.1-0.238,0.192-0.479,0.275-0.723  c8.835-24.193,8.835-50.73,0-74.923L505.344,315.707z M394.645,406.502c-29.455,0-53.333-23.878-53.333-53.333  c0-29.455,23.878-53.333,53.333-53.333s53.333,23.878,53.333,53.333C447.979,382.624,424.101,406.502,394.645,406.502z" data-original="#455A64"/><path style="fill:#4CAF50;" d="M213.312,321.169c0-17.621,23.189-21.333,42.667-21.333l3.648,0.149  c0.774,0.022,1.547-0.049,2.304-0.213l8.064-1.643c3.021-3.505,6.77-6.308,10.987-8.213c0.789-0.363,1.579-0.683,2.389-0.981  c-0.149-0.832-0.277-1.685-0.384-2.539c-0.905-8.883,1.914-17.743,7.787-24.469c19.913-23.05,46.934-38.812,76.8-44.8  c8.833-1.778,18.006,0.277,25.237,5.653c0.661,0.469,1.301,0.981,1.899,1.515c0.619-0.533,1.259-1.045,1.92-1.536  c7.321-5.394,16.59-7.418,25.493-5.568c25.507,5.263,48.957,17.765,67.541,36.011l6.187-1.259c3.122-0.633,5.798-2.628,7.296-5.44  c5.42-9.827,8.467-20.786,8.896-32c0-25.472-21.333-64-53.333-64c-12.067,0.162-23.662,4.712-32.619,12.8  c-5.007,4.753-11.424,7.748-18.283,8.533c-2.24-7.36-1.92-33.813,13.077-93.867c3.652-14.753-5.347-29.674-20.1-33.327  c-2.183-0.54-4.424-0.811-6.673-0.806h-95.616c-8.449-0.007-16.052,5.13-19.2,12.971c-3.223,7.959-1.252,17.08,4.971,22.997  c8.429,6.972,13.626,17.098,14.379,28.011c0,17.643-23.189,21.333-42.667,21.333s-42.667-3.691-42.667-21.333  c0.768-10.934,5.998-21.07,14.464-28.032c6.223-5.918,8.194-15.038,4.971-22.997c-3.148-7.841-10.751-12.977-19.2-12.971h-95.616  c-15.199-0.033-27.547,12.261-27.58,27.46c-0.005,2.249,0.266,4.49,0.806,6.673c14.933,59.968,15.317,86.421,13.077,93.867  c-6.859-0.785-13.276-3.78-18.283-8.533c-8.957-8.088-20.552-12.638-32.619-12.8c-32,0-53.333,38.528-53.333,64s21.333,64,53.333,64  c12.067-0.162,23.662-4.712,32.619-12.8c5.007-4.753,11.424-7.748,18.283-8.533c2.24,7.36,1.92,33.813-13.077,93.867  c-3.641,14.769,5.38,29.692,20.149,33.333c2.175,0.536,4.406,0.805,6.646,0.8h95.552c8.451,0.013,16.057-5.126,19.2-12.971  c3.217-7.96,1.246-17.077-4.971-22.997C219.287,342.217,214.073,332.089,213.312,321.169z" data-original="#4CAF50"/></g> </svg>
