<?xml version="1.0"?>
<svg xmlns="http://www.w3.org/2000/svg" xmlns:xlink="http://www.w3.org/1999/xlink" version="1.1" id="Capa_1" x="0px" y="0px" viewBox="0 0 470.613 470.613" style="enable-background:new 0 0 470.613 470.613;" xml:space="preserve" width="512px" height="512px" class=""><g><g>
	<path style="fill:#D7281B" d="M351.893,234.667c-64.801,0-117.333-52.532-117.333-117.333S287.092,0,351.893,0   s117.333,52.532,117.333,117.333C469.144,182.101,416.661,234.584,351.893,234.667z M351.893,21.333c-53.019,0-96,42.981-96,96   s42.981,96,96,96s96-42.981,96-96S404.913,21.333,351.893,21.333C351.893,21.333,351.893,21.333,351.893,21.333z" data-original="#F44336" class="active-path" data-old_color="#F44336"/>
	<path style="fill:#D7281B" d="M427.307,203.435c-2.831,0.005-5.548-1.115-7.552-3.115L268.928,49.472   c-4.093-4.237-3.975-10.99,0.262-15.083c4.134-3.992,10.687-3.992,14.82,0l150.827,150.848c4.171,4.16,4.179,10.914,0.019,15.085   c-2.006,2.011-4.731,3.139-7.571,3.134L427.307,203.435z" data-original="#F44336" class="active-path" data-old_color="#F44336"/>
</g><path style="fill:#24B7A9" d="M374.72,332.16c-24.694,0.056-49.237-3.833-72.704-11.52c-10.966-3.841-23.159-1.268-31.637,6.677  l-46.016,34.773c-49.446-24.817-89.563-64.927-114.389-114.368l33.813-44.992c8.52-8.552,11.564-21.14,7.893-32.64  c-7.739-23.494-11.665-48.075-11.627-72.811c0-17.673-14.327-32-32-32H33.387c-17.673,0-32,14.327-32,32  C1.622,303.369,168.631,470.378,374.72,470.613c17.673,0,32-14.327,32-32V364.16C406.72,346.487,392.393,332.16,374.72,332.16z" data-original="#009688" class="" data-old_color="#36C0B3"/></g> </svg>
