<?xml version="1.0"?>
<svg xmlns="http://www.w3.org/2000/svg" height="512px" viewBox="0 0 512 512" width="512px" class=""><g><path d="m512 256c0 141.386719-114.613281 256-256 256s-256-114.613281-256-256 114.613281-256 256-256 256 114.613281 256 256zm0 0" fill="#414952" data-original="#414952" class="" style="fill:#2F6BAE" data-old_color="#2B77CD"/><path d="m512 256c0-12.617188-.929688-25.019531-2.691406-37.148438l-132.515625-132.515624-287.832031 311.066406 107.660156 107.660156c19.058594 4.527344 38.9375 6.9375 59.378906 6.9375 141.386719 0 256-114.613281 256-256zm0 0" fill="#23272b" data-original="#23272B" class="" style="fill:#143E66" data-old_color="#133C63"/><path d="m88.960938 228.066406h334.078124v169.335938h-334.078124zm0 0" fill="#ffa300" data-original="#FFA300" class="" style="fill:#F03049" data-old_color="#FF9696"/><path d="m255.808594 228.0625h167.230468v169.339844h-167.230468zm0 0" fill="#fe8205" data-original="#FE8205" class="" style="fill:#D1093A" data-old_color="#FE8205"/><path d="m186.210938 328.097656-97.25 69.304688h334.078124l-97.25-69.304688c-20.375-14.519531-44.769531-22.324218-69.789062-22.324218s-49.414062 7.804687-69.789062 22.324218zm0 0" fill="#fdba12" data-original="#FDBA12" class="" style="fill:#D1093A" data-old_color="#F03049"/><path d="m325.789062 328.097656c-20.375-14.519531-44.769531-22.324218-69.789062-22.324218-.0625 0-.128906.003906-.191406.003906v91.625h167.230468zm0 0" fill="#ffa300" data-original="#FFA300" class="" style="fill:#F03049" data-old_color="#FF9696"/><path d="m88.960938 228.066406 167.039062-123.527344 167.039062 123.527344-167.230468 123.378906zm0 0" fill="#ffd400" data-original="#FFD400" class="" style="fill:#FF9696" data-old_color="#897929"/><path d="m423.039062 228.0625-167.039062-123.523438-.191406.140626v246.769531-.003907zm0 0" fill="#fdba12" data-original="#FDBA12" class="" style="fill:#D1093A" data-old_color="#F03049"/><path d="m200.566406 86.335938-65.359375 65.359374v110.566407l120.601563 89.183593 120.984375-89.183593v-175.925781zm0 0" fill="#fff" data-original="#FFF" class=""/><path d="m255.808594 86.335938v265.113281-.003907l120.984375-89.183593v-175.925781zm0 0" fill="#e9edf5" data-original="#E9EDF5" class=""/><path d="m200.566406 151.695312v-65.359374l-65.359375 65.359374zm0 0" fill="#ff9696" data-original="#FF9696" class="" style="fill:#FF9696" data-old_color="#E9EDF5"/><path d="m256 136.964844c-45.214844 0-82 36.78125-82 82 0 45.214844 36.785156 82 82 82s82-36.785156 82-82c0-45.21875-36.785156-82-82-82zm0 28.65625c8.453125 0 16.449219 1.988281 23.558594 5.503906l-71.398438 71.398438c-3.515625-7.109376-5.5-15.105469-5.5-23.558594 0-29.414063 23.929688-53.34375 53.339844-53.34375zm0 106.683594c-10.554688 0-20.394531-3.09375-28.683594-8.40625l73.621094-73.617188c5.308594 8.289062 8.402344 18.128906 8.402344 28.683594 0 29.410156-23.929688 53.339844-53.339844 53.339844zm0 0" fill="#f03049" data-original="#F03049" class="active-path" style="fill:#F63D20" data-old_color="#F84F34"/><path d="m256 136.964844c-.0625 0-.128906.003906-.191406.003906v28.660156c.066406 0 .128906-.007812.191406-.007812 8.453125 0 16.449219 1.988281 23.558594 5.503906l-23.75 23.75v40.53125l45.128906-45.125c5.308594 8.289062 8.402344 18.125 8.402344 28.683594 0 29.410156-23.929688 53.339844-53.339844 53.339844-.0625 0-.128906-.003907-.191406-.003907v28.660157c.066406 0 .128906.003906.191406.003906 45.214844 0 82-36.785156 82-82s-36.785156-82-82-82zm0 0" fill="#d1093a" data-original="#D1093A" class="" style="fill:#D82F11" data-old_color="#C82407"/></g> </svg>
