<?xml version="1.0"?>
<svg xmlns="http://www.w3.org/2000/svg" height="512px" viewBox="0 0 512 512" width="512px" class=""><g><path d="m512 256c0 141.386719-114.613281 256-256 256s-256-114.613281-256-256 114.613281-256 256-256 256 114.613281 256 256zm0 0" fill="#19cffc" data-original="#19CFFC" class="" style="fill:#42B0D2" data-old_color="#42B1D3"/><path d="m512 256c0-15.679688-1.417969-31.03125-4.117188-45.933594l-98.503906-98.507812-320.417968 251.175781 43.167968 43.171875-4.089844 15.195312 87.746094 87.746094c13.101563 2.066406 26.53125 3.152344 40.214844 3.152344 141.386719 0 256-114.613281 256-256zm0 0" fill="#4ab8f7" data-original="#4AB8F7" class="" style="fill:#308FC6" data-old_color="#3090C8"/><path d="m167.886719 111.558594h241.492187v147.996094h-39.082031v58.367187l-69.269531-58.367187h-133.140625zm0 0" fill="#414952" data-original="#414952" class="" style="fill:#414952" data-old_color="#288326"/><path d="m287.355469 111.558594v147.996094h13.671875l69.269531 58.367187v-58.367187h39.082031v-147.996094zm0 0" fill="#23272b" data-original="#23272B" class="active-path" style="fill:#23272B" data-old_color="#25B123"/><path d="m330.449219 214.742188h-241.488281v147.992187h39.078124v58.367187l69.269532-58.367187h133.140625zm0 0" fill="#fff" data-original="#FFF" class=""/><path d="m210.570312 214.742188h119.878907v147.992187h-119.878907zm0 0" fill="#e9edf5" data-original="#E9EDF5" class=""/><path d="m111.609375 155.390625h196.195313v118.699219h-196.195313zm0 0" fill="#ffa300" data-original="#FFA300" class="" style="fill:#FFA300" data-old_color="#E9EDF5"/><path d="m210.570312 155.390625h97.234376v118.699219h-97.234376zm0 0" fill="#ff9500" data-original="#FF9500" class="" style="fill:#FFD400" data-old_color="#FDBA12"/><path d="m168.71875 225.511719-57.109375 48.578125h196.195313l-57.113282-48.578125c-11.964844-10.179688-26.292968-15.648438-40.984375-15.648438-14.695312 0-29.023437 5.46875-40.988281 15.648438zm0 0" fill="#fdba12" data-original="#FDBA12" class="" style="fill:#FDBA12" data-old_color="#8C1832"/><path d="m250.691406 225.511719c-11.730468-9.980469-25.730468-15.417969-40.121094-15.628907v64.207032h97.234376zm0 0" fill="#ffa300" data-original="#FFA300" class="" style="fill:#FFA300" data-old_color="#E9EDF5"/><path d="m307.804688 155.390625-98.097657 86.585937-98.097656-86.585937zm0 0" fill="#ffd400" data-original="#FFD400" class="" style="fill:#FFD400" data-old_color="#FF003A"/><path d="m210.570312 155.390625v85.824219l97.234376-85.824219zm0 0" fill="#fdba12" data-original="#FDBA12" class="" style="fill:#FDBA12" data-old_color="#8C1832"/></g> </svg>
