<?xml version="1.0"?>
<svg xmlns="http://www.w3.org/2000/svg" xmlns:xlink="http://www.w3.org/1999/xlink" version="1.1" id="Layer_1" x="0px" y="0px" viewBox="0 0 509.287 509.287" style="enable-background:new 0 0 509.287 509.287;" xml:space="preserve" width="512px" height="512px" class=""><g><circle style="fill:#457AAE" cx="254.644" cy="254.644" r="254.644" data-original="#6EB1E1" class="" data-old_color="#6EB1E1"/><polygon style="fill:#F1F3F7;" points="384.848,77.987 91.55,77.987 91.55,372.641 163.772,444.864 384.848,444.864 " data-original="#F1F3F7"/><polygon style="fill:#DEDEDF;" points="163.772,372.641 91.55,372.641 163.772,444.864 " data-original="#DEDEDF"/><path style="fill:#35353D" d="M483.857,277.362v-31.873l-29.499-4.069c-1.356-5.086-3.391-10.172-6.103-14.58l17.971-23.735  l-22.718-22.718l-23.735,17.971c-4.747-2.713-9.494-4.747-14.58-6.103l-4.069-29.499H369.25l-4.069,29.499  c-5.086,1.356-10.172,3.391-14.58,6.103l-23.735-17.971l-22.718,22.718l17.971,23.735c-2.713,4.747-4.747,9.494-6.103,14.58  l-29.499,4.069v31.873l29.499,4.069c1.356,5.086,3.391,10.172,6.103,14.58l-17.971,23.735l22.718,22.718l23.735-17.971  c4.747,2.713,9.494,4.747,14.58,6.103l4.069,29.499h31.873l4.069-29.499c5.086-1.356,10.172-3.391,14.58-6.103l23.735,17.971  l22.718-22.718l-17.971-23.735c2.713-4.747,4.747-9.494,6.103-14.58L483.857,277.362z M384.848,296.35  c-19.327,0-34.925-15.597-34.925-34.924s15.597-34.925,34.925-34.925c19.327,0,34.924,15.597,34.924,34.925  C419.433,280.752,404.175,296.35,384.848,296.35z" data-original="#4F5565" class="" data-old_color="#33333B"/><rect x="139.359" y="119.015" style="fill:#6EB1E1" width="197.679" height="43.401" data-original="#F0582F" class="" data-old_color="#349241"/><rect x="139.359" y="186.49" style="fill:#F0582F" width="74.596" height="89.515" data-original="#FBD303" class="active-path" data-old_color="#FBD303"/><g>
	<rect x="139.359" y="308.895" style="fill:#DEDEDF;" width="128.17" height="14.58" data-original="#DEDEDF"/>
	<rect x="139.359" y="342.803" style="fill:#DEDEDF;" width="128.17" height="14.58" data-original="#DEDEDF"/>
</g></g> </svg>
