<?xml version="1.0"?>
<svg xmlns="http://www.w3.org/2000/svg" xmlns:xlink="http://www.w3.org/1999/xlink" version="1.1" id="Layer_1" x="0px" y="0px" viewBox="0 0 505 505" style="enable-background:new 0 0 505 505;" xml:space="preserve" width="512px" height="512px" class=""><g><circle style="fill:#5C77E0" cx="252.5" cy="252.5" r="252.5" data-original="#4CDBC4" class="active-path" data-old_color="#5C76DF"/><path style="fill:#132324" d="M334.9,133.4v140c0,8.3-6.7,15-15,15H154l-39.7,39.7v-39.7h-14.1c-8.2,0-15-6.7-15-15v-140  c0-8.2,6.7-14.9,15-14.9H320C328.3,118.4,334.9,125.1,334.9,133.4z" data-original="#324A5E" class="" data-old_color="#122223"/><g>
	<rect x="113.9" y="149.1" style="fill:#2B3B4E;" width="192.4" height="12.4" data-original="#2B3B4E" class=""/>
	<rect x="113.9" y="179.5" style="fill:#2B3B4E;" width="192.4" height="12.4" data-original="#2B3B4E" class=""/>
	<rect x="113.9" y="209.8" style="fill:#2B3B4E;" width="192.4" height="12.4" data-original="#2B3B4E" class=""/>
	<rect x="113.9" y="240.1" style="fill:#2B3B4E;" width="91.1" height="12.4" data-original="#2B3B4E" class=""/>
</g><path style="fill:#FFFFFF;" d="M419.7,218.2v140c0,8.2-6.7,15-15,15h-14.1v39.7l-39.7-39.7H185c-8.2,0-15-6.7-15-15v-140  c0-8.2,6.7-15,15-15h219.8C413,203.2,419.7,209.9,419.7,218.2z" data-original="#FFFFFF" class=""/><g>
	<rect x="198.7" y="233.5" style="fill:#C8D8E0" width="192.4" height="12.4" data-original="#E6E9EE" class="" data-old_color="#C9D9E1"/>
	<rect x="198.7" y="263.9" style="fill:#C8D8E0" width="192.4" height="12.4" data-original="#E6E9EE" class="" data-old_color="#C9D9E1"/>
	<rect x="198.7" y="294.2" style="fill:#C8D8E0" width="192.4" height="12.4" data-original="#E6E9EE" class="" data-old_color="#C9D9E1"/>
	<rect x="198.7" y="324.5" style="fill:#C8D8E0" width="91.1" height="12.4" data-original="#E6E9EE" class="" data-old_color="#C9D9E1"/>
</g></g> </svg>
