<?xml version="1.0"?>
<svg xmlns="http://www.w3.org/2000/svg" height="512px" viewBox="0 0 512 512" width="512px" class=""><g><path d="m512 256c0 141.386719-114.613281 256-256 256s-256-114.613281-256-256 114.613281-256 256-256 256 114.613281 256 256zm0 0" fill="#e8f449" data-original="#E8F449" class="active-path" style="fill:#61C1EE" data-old_color="#60C1EE"/><path d="m512 256c0-10.175781-.613281-20.207031-1.765625-30.070312l-103.234375-103.234376-302 266.609376 120.929688 120.929687c9.863281 1.152344 19.894531 1.765625 30.070312 1.765625 141.386719 0 256-114.613281 256-256zm0 0" fill="#a5b849" data-original="#A5B849" class="" style="fill:#2F89BF" data-old_color="#2F88BD"/><path d="m187.292969 131.542969 68.707031 257.761719h151v-204.675782zm0 0" fill="#5c6f74" data-original="#5C6F74" class="" style="fill:#35353F" data-old_color="#34343E"/><path d="m105 184.628906v204.675782h151v-257.761719zm0 0" fill="#7a888a" data-original="#7A888A" class="" style="fill:#38383E" data-old_color="#39393F"/><path d="m222.683594 166.933594 33.316406 204.675781h133.304688v-204.675781zm0 0" fill="#eaf7ff" data-original="#EAF7FF" class=""/><path d="m122.695312 166.933594h133.304688v204.675781h-133.304688zm0 0" fill="#fff" data-original="#FFF" class=""/><path d="m407 184.628906v-61.933594h-61.933594l-17.695312 30.964844 17.695312 30.96875zm0 0" fill="#f85b3f" data-original="#F85B3F" class=""/><path d="m345.066406 184.628906v-61.933594h-89.066406l-17.695312 30.964844 17.695312 30.96875zm0 0" fill="#3e575f" data-original="#3E575F" class="" style="fill:#3D3D43" data-old_color="#3E3E44"/><path d="m105 122.695312h151v61.933594h-151zm0 0" fill="#5c6f74" data-original="#5C6F74" class="" style="fill:#35353F" data-old_color="#34343E"/><path d="m389.304688 211.171875v80.21875h-124.457032v-80.21875l62.226563-17.695313zm0 0" fill="#7acbfc" data-original="#7ACBFC" class="" style="fill:#8686C6" data-old_color="#8787C6"/><path d="m389.304688 184.628906v26.542969h-26.542969l-17.695313-13.273437 17.695313-13.269532zm0 0" fill="#ff7f67" data-original="#FF7F67" class="" style="fill:#E5472A" data-old_color="#E5482B"/><path d="m264.847656 184.628906h97.914063v26.542969h-97.914063zm0 0" fill="#5c6f74" data-original="#5C6F74" class="" style="fill:#35353F" data-old_color="#34343E"/><path d="m193.769531 251.28125v80.21875h62.230469v-97.914062zm0 0" fill="#7acbfc" data-original="#7ACBFC" class="" style="fill:#8686C6" data-old_color="#8787C6"/><path d="m318.230469 251.28125-62.230469-17.695312v97.914062h62.230469zm0 0" fill="#4bb4f5" data-original="#4BB4F5" class="" style="fill:#6464A5" data-old_color="#6565A7"/><path d="m318.230469 224.738281v26.542969h-26.542969l-17.699219-13.269531 17.699219-13.273438zm0 0" fill="#ff7f67" data-original="#FF7F67" class="" style="fill:#E5472A" data-old_color="#E5482B"/><path d="m291.6875 224.738281h-35.6875l-17.695312 13.273438 17.695312 13.269531h35.6875zm0 0" fill="#5c6f74" data-original="#5C6F74" class="" style="fill:#35353F" data-old_color="#34343E"/><path d="m193.769531 224.738281h62.230469v26.542969h-62.230469zm0 0" fill="#7a888a" data-original="#7A888A" class="" style="fill:#38383E" data-old_color="#39393F"/><path d="m247.152344 291.390625v80.21875h-124.457032v-80.21875l62.230469-17.695313zm0 0" fill="#a7dcfc" data-original="#A7DCFC" class="" style="fill:#A5B849" data-old_color="#A7DCFC"/><path d="m247.152344 264.847656v26.542969h-26.542969l-17.695313-13.273437 17.695313-13.269532zm0 0" fill="#ff7f67" data-original="#FF7F67" class="" style="fill:#E5472A" data-old_color="#E5482B"/><path d="m122.695312 264.847656h97.914063v26.542969h-97.914063zm0 0" fill="#7a888a" data-original="#7A888A" class="" style="fill:#38383E" data-old_color="#39393F"/></g> </svg>
