<?xml version="1.0"?>
<svg xmlns="http://www.w3.org/2000/svg" height="512px" viewBox="0 0 512 512" width="512px" class=""><g><path d="m512 256c0 141.386719-114.613281 256-256 256s-256-114.613281-256-256 114.613281-256 256-256 256 114.613281 256 256zm0 0" fill="#4a7aff" data-original="#4A7AFF" class="" style="fill:#4A98F7" data-old_color="#1B9225"/><path d="m512 256c0-20.945312-2.535156-41.296875-7.277344-60.777344l-74.722656-74.722656-348 271 113.222656 113.222656c19.480469 4.742188 39.832032 7.277344 60.777344 7.277344 141.386719 0 256-114.613281 256-256zm0 0" fill="#0053bf" data-original="#0053BF" class=""/><path d="m82 120.5h348v271h-348zm0 0" fill="#fff" data-original="#FFF" class="" style="fill:#4D5559" data-old_color="#4C5357"/><path d="m255.644531 120.5h174.355469v271h-174.355469zm0 0" fill="#dce1eb" data-original="#DCE1EB" class="" style="fill:#3A4143" data-old_color="#3B4244"/><path d="m103 168h306v199h-306zm0 0" fill="#f92814" data-original="#F92814" class="" style="fill:#FFF" data-old_color="#F92814"/><path d="m255.644531 168h153.355469v199h-153.355469zm0 0" fill="#db0404" data-original="#DB0404" class="" style="fill:#DCE1EB" data-old_color="#DB0404"/><path d="m132.25 143.125c0 8.351562-6.773438 15.125-15.125 15.125s-15.125-6.773438-15.125-15.125 6.773438-15.125 15.125-15.125 15.125 6.773438 15.125 15.125zm0 0" fill="#fe6a16" data-original="#FE6A16" class="" style="fill:#DD1C1C" data-old_color="#DF1C1C"/><path d="m212.28125 143.125c0 8.351562-6.773438 15.125-15.125 15.125-8.355469 0-15.125-6.773438-15.125-15.125s6.769531-15.125 15.125-15.125c8.351562 0 15.125 6.773438 15.125 15.125zm0 0" fill="#4a7aff" data-original="#4A7AFF" class="" style="fill:#4A98F7" data-old_color="#1B9225"/><path d="m171.5 143.125c0 8.351562-6.773438 15.125-15.125 15.125s-15.125-6.773438-15.125-15.125 6.773438-15.125 15.125-15.125 15.125 6.773438 15.125 15.125zm0 0" fill="#ff9d00" data-original="#FF9D00" class=""/><path d="m256 191.546875c-58.273438 0-109.355469 30.773437-137.894531 76.953125 28.539062 46.179688 79.621093 76.953125 137.894531 76.953125s109.355469-30.773437 137.894531-76.953125c-28.539062-46.179688-79.621093-76.953125-137.894531-76.953125zm0 0" fill="#fff" data-original="#FFF" class="" style="fill:#4D5559" data-old_color="#4C5357"/><path d="m256 191.546875c-.117188 0-.238281.007813-.355469.007813v153.894531c.117188 0 .234375.003906.355469.003906 58.273438 0 109.355469-30.773437 137.894531-76.953125-28.539062-46.179688-79.621093-76.953125-137.894531-76.953125zm0 0" fill="#dce1eb" data-original="#DCE1EB" class="" style="fill:#3A4143" data-old_color="#3B4244"/><path d="m319.046875 267.953125c0 34.820313-28.226563 63.046875-63.046875 63.046875s-63.046875-28.226562-63.046875-63.046875 28.226563-63.046875 63.046875-63.046875 63.046875 28.226562 63.046875 63.046875zm0 0" fill="#65b1fc" data-original="#65B1FC" class="" style="fill:#65B1FC"/><path d="m256 204.90625c-.121094 0-.238281.007812-.355469.007812v126.078126c.117188 0 .234375.007812.355469.007812 34.820312 0 63.046875-28.226562 63.046875-63.046875s-28.226563-63.046875-63.046875-63.046875zm0 0" fill="#4a98f7" data-original="#4A98F7" class=""/><path d="m293.074219 267.953125c0 20.476563-16.597657 37.074219-37.074219 37.074219s-37.074219-16.597656-37.074219-37.074219 16.597657-37.074219 37.074219-37.074219 37.074219 16.597656 37.074219 37.074219zm0 0" fill="#414952" data-original="#414952" class="active-path" style="fill:#414952" data-old_color="#65B1FC"/><path d="m256 230.878906c-.121094 0-.238281.007813-.355469.011719v74.125c.117188.003906.234375.011719.355469.011719 20.476562 0 37.074219-16.597656 37.074219-37.074219s-16.597657-37.074219-37.074219-37.074219zm0 0" fill="#333940" data-original="#333940" class="" style="fill:#333940" data-old_color="#4A98F7"/></g> </svg>
