<?xml version="1.0"?>
<svg xmlns="http://www.w3.org/2000/svg" xmlns:xlink="http://www.w3.org/1999/xlink" version="1.1" id="Layer_1" x="0px" y="0px" viewBox="0 0 509.287 509.287" style="enable-background:new 0 0 509.287 509.287;" xml:space="preserve" width="512px" height="512px" class=""><g><circle style="fill:#2378B3" cx="254.644" cy="254.644" r="254.644" data-original="#6EB1E1" class="" data-old_color="#2278B3"/><path style="fill:#4F5565;" d="M444.185,119.354c0-7.121-5.764-12.546-12.546-12.546H77.648c-7.121,0-12.546,5.764-12.546,12.546  v43.74h379.423v-43.74H444.185z" data-original="#4F5565" class=""/><circle style="fill:#F0582F;" cx="102.739" cy="134.612" r="9.155" data-original="#F0582F" class=""/><circle style="fill:#FBD303;" cx="133.256" cy="134.612" r="9.155" data-original="#FBD303" class=""/><circle style="fill:#71D456;" cx="164.111" cy="134.612" r="9.155" data-original="#71D456"/><path style="fill:#333842;" d="M378.744,125.457H209.886c-5.086,0-9.155,4.069-9.155,9.155s4.069,9.155,9.155,9.155h168.858  c5.086,0,9.155-4.069,9.155-9.155C387.899,129.865,383.83,125.457,378.744,125.457z" data-original="#333842"/><path style="fill:#F1F3F7;" d="M65.102,163.094v227.179c0,7.121,5.764,12.546,12.546,12.546H431.64  c7.121,0,12.546-5.764,12.546-12.546V163.094H65.102z" data-original="#F1F3F7" class=""/><circle style="fill:#6EB1E1" cx="254.644" cy="246.167" r="58.999" data-original="#0090FF" class="" data-old_color="#2D82C3"/><g>
	<circle style="fill:#646B79" cx="254.644" cy="217.685" r="21.023" data-original="#FCFCFD" class="" data-old_color="#FFFFFC"/>
	<path style="fill:#646B79" d="M254.644,305.166c17.632,0,33.568-7.799,44.419-20.005c-1.017-23.735-20.344-42.723-44.419-42.723   s-43.401,18.988-44.419,42.723C221.075,297.367,237.012,305.166,254.644,305.166z" data-original="#FCFCFD" class="" data-old_color="#FFFFFC"/>
</g><g>
	<rect x="210.225" y="325.51" style="fill:#646B79;" width="88.498" height="12.207" data-original="#646B79"/>
	<rect x="233.621" y="353.992" style="fill:#646B79;" width="42.384" height="12.207" data-original="#646B79"/>
</g><rect x="44.758" y="187.168" style="fill:#FFFFFC;" width="105.791" height="154.617" data-original="#FFFFFC"/><rect x="60.355" y="202.766" style="fill:#FBD303;" width="43.401" height="9.494" data-original="#FBD303" class=""/><g>
	<rect x="60.355" y="225.483" style="fill:#DEDEDF" width="74.257" height="9.494" data-original="#DEDEDF" class="active-path"/>
	<rect x="60.355" y="248.54" style="fill:#DEDEDF" width="74.257" height="9.494" data-original="#DEDEDF" class="active-path"/>
	<rect x="60.355" y="271.258" style="fill:#DEDEDF" width="74.257" height="9.494" data-original="#DEDEDF" class="active-path"/>
	<rect x="60.355" y="293.976" style="fill:#DEDEDF" width="74.257" height="9.494" data-original="#DEDEDF" class="active-path"/>
	<rect x="60.355" y="317.033" style="fill:#DEDEDF" width="74.257" height="9.494" data-original="#DEDEDF" class="active-path"/>
</g></g> </svg>
