<?xml version="1.0"?>
<svg xmlns="http://www.w3.org/2000/svg" xmlns:xlink="http://www.w3.org/1999/xlink" version="1.1" id="Capa_1" x="0px" y="0px" viewBox="0 0 512 512" style="enable-background:new 0 0 512 512;" xml:space="preserve" width="512px" height="512px"><g><circle style="fill:#414952;" cx="256" cy="256" r="256" data-original="#414952"/><path style="fill:#23272B;" d="M423.258,271.877l-98.315-98.314l-209.062-12.896L96.779,354.186l157.796,157.796  c0.476,0.003,0.948,0.018,1.425,0.018c55.008,0,105.96-17.355,147.69-46.88l1.215-1.215l0.201,0.201  C469.831,417.648,512,341.752,512,256c0-0.47-0.015-0.936-0.018-1.405l-98.578-98.578L423.258,271.877z" data-original="#23272B"/><polygon style="fill:#FF0037;" points="317.611,256 220.389,199.869 220.389,312.131 " data-original="#FF0037"/><polygon style="fill:#D30F0F;" points="220.389,255.905 220.389,312.131 317.611,256 317.611,256 " data-original="#D30F0F"/><path style="fill:#FFFFFF;" d="M154.528,378.437c-44.679,0-81.028-36.349-81.028-81.028v-82.818  c0-44.679,36.349-81.028,81.028-81.028h73.847l-39.139-39.14l28.284-28.284l107.423,107.424H154.528  c-22.623,0-41.028,18.405-41.028,41.028v82.818c0,22.623,18.405,41.028,41.028,41.028V378.437z" data-original="#FFFFFF"/><path style="fill:#DCE1EB;" d="M113.5,297.409v-41.504h-40v41.504c0,44.679,36.349,81.028,81.028,81.028v-40  C131.905,338.437,113.5,320.032,113.5,297.409z" data-original="#DCE1EB"/><path style="fill:#FFFFFF;" d="M294.479,445.861L187.057,338.437h170.416c22.622,0,41.027-18.405,41.027-41.028v-82.818  c0-22.623-18.405-41.028-41.027-41.028v-40c44.679,0,81.027,36.349,81.027,81.028v82.818c0,44.679-36.349,81.028-81.027,81.028  h-73.848l39.14,39.14L294.479,445.861z" data-original="#FFFFFF"/><path style="fill:#DCE1EB;" d="M398.5,255.905v41.504c0,22.623-18.405,41.028-41.027,41.028H187.057L294.48,445.861l28.285-28.284  l-39.14-39.14h73.848c44.679,0,81.027-36.349,81.027-81.028v-41.504H398.5z" data-original="#DCE1EB"/></g> </svg>
