<?xml version="1.0"?>
<svg xmlns="http://www.w3.org/2000/svg" xmlns:xlink="http://www.w3.org/1999/xlink" version="1.1" id="Layer_1" x="0px" y="0px" viewBox="0 0 482.2 482.2" style="enable-background:new 0 0 482.2 482.2;" xml:space="preserve" width="512px" height="512px"><g><circle style="fill:#324A5E;" cx="241.1" cy="241.1" r="241.1" data-original="#324A5E"/><polygon style="fill:#FFFFFF;" points="155,73.4 155,127.4 100.9,127.4 100.9,408.8 356.3,408.8 356.3,73.4 " data-original="#FFFFFF"/><g>
	<polygon style="fill:#E6E9EE;" points="155,73.4 100.9,127.4 155,127.4  " data-original="#E6E9EE"/>
	<rect x="132.7" y="283.3" style="fill:#E6E9EE;" width="191.2" height="14.7" data-original="#E6E9EE"/>
	<rect x="132.7" y="314.2" style="fill:#E6E9EE;" width="191.2" height="14.7" data-original="#E6E9EE"/>
	<rect x="132.7" y="345.2" style="fill:#E6E9EE;" width="113.3" height="14.7" data-original="#E6E9EE"/>
</g><rect x="285.794" y="218.043" transform="matrix(-0.7071 0.7071 -0.7071 -0.7071 680.0255 203.6097)" style="fill:#2B3B4E;" width="24.1" height="49.2" data-original="#2B3B4E"/><circle style="fill:#324A5E;" cx="240.2" cy="184.9" r="76.5" data-original="#324A5E"/><circle style="fill:#84DBFF;" cx="240.2" cy="184.9" r="59.1" data-original="#84DBFF"/><path style="fill:#E6E9EE;" d="M322.9,241.6l-26,26c-0.9,0.9-0.9,2.5,0,3.4l70.2,70.2c0.9,0.9,2.5,0.9,3.4,0l26-26  c0.9-0.9,0.9-2.5,0-3.4l-70.2-70.2C325.4,240.7,323.9,240.7,322.9,241.6z" data-original="#E6E9EE"/><rect x="312.563" y="270.724" transform="matrix(-0.7071 -0.7071 0.7071 -0.7071 385.8226 742.8599)" style="fill:#FF7058" width="68.399" height="41.6" data-original="#FF7058" class="active-path"/></g> </svg>
