<?xml version="1.0"?>
<svg xmlns="http://www.w3.org/2000/svg" height="512px" version="1.1" viewBox="-8 0 463 463.47249" width="512px" class=""><g><g id="surface1">
<path d="M 359.78125 263.472656 C 342.109375 263.472656 327.78125 277.800781 327.78125 295.472656 L 327.78125 303.472656 L 391.78125 303.472656 L 391.78125 295.472656 C 391.78125 277.800781 377.453125 263.472656 359.78125 263.472656 Z M 359.78125 263.472656 " style="fill:#FFB655" data-original="#FFB655" class="" data-old_color=" stroke:nonefill-rule:nonzero;rgb(100%,71.372549%,33.333333%);fill-opacity:1;"/>
<path d="M 287.78125 303.472656 L 327.78125 303.472656 L 327.78125 295.472656 C 327.78125 277.800781 342.109375 263.472656 359.78125 263.472656 C 377.453125 263.472656 391.78125 277.800781 391.78125 295.472656 L 391.78125 303.472656 L 413.0625 303.472656 C 454.214844 211.023438 425.582031 102.390625 344.199219 42.242188 C 262.820312 -17.90625 150.570312 -13.402344 74.265625 53.066406 C -2.039062 119.539062 -21.886719 230.113281 26.539062 318.96875 C 74.964844 407.828125 178.644531 451.085938 275.863281 422.992188 L 279.300781 388.113281 Z M 47.78125 215.472656 C 47.78125 122.6875 123 47.472656 215.78125 47.472656 C 308.566406 47.472656 383.78125 122.6875 383.78125 215.472656 C 383.78125 122.6875 308.566406 47.472656 215.78125 47.472656 C 123 47.472656 47.78125 122.6875 47.78125 215.472656 C 47.78125 308.257812 123 383.472656 215.78125 383.472656 C 123 383.472656 47.78125 308.257812 47.78125 215.472656 Z M 266.582031 191.472656 L 231.78125 156.753906 L 231.78125 335.472656 L 199.78125 335.472656 L 199.78125 156.753906 L 164.980469 191.472656 L 154.5 201.953125 L 144.023438 191.472656 L 131.863281 179.390625 L 215.78125 95.472656 L 299.703125 179.390625 L 287.542969 191.472656 L 277.0625 201.953125 Z M 266.582031 191.472656 " style="fill:#FFB655" data-original="#FFB655" class="" data-old_color=" stroke:nonefill-rule:nonzero;rgb(100%,71.372549%,33.333333%);fill-opacity:1;"/>
<path d="M 413.0625 303.472656 L 391.78125 303.472656 L 391.78125 327.472656 L 391.78125 303.472656 L 327.78125 303.472656 L 327.78125 327.472656 L 327.78125 303.472656 L 287.78125 303.472656 L 279.300781 388.113281 L 275.863281 422.992188 L 274.980469 431.472656 L 271.78125 463.472656 L 447.78125 463.472656 L 431.78125 303.472656 Z M 413.0625 303.472656 " style="fill:#5AC8C8" data-original="#91DC5A" class="" data-old_color="#5AC6C6"/>
<path d="M 299.703125 179.390625 L 215.78125 95.472656 L 131.863281 179.390625 L 144.023438 191.472656 L 154.5 201.953125 L 164.980469 191.472656 L 199.78125 156.753906 L 199.78125 335.472656 L 231.78125 335.472656 L 231.78125 156.753906 L 266.582031 191.472656 L 277.0625 201.953125 L 287.542969 191.472656 Z M 299.703125 179.390625 " style="fill:#7ED63E" data-original="#7ED63E" class="active-path" data-old_color="#F1F2F2"/>
<path d="M 391.78125 335.472656 C 387.363281 335.472656 383.78125 331.890625 383.78125 327.472656 L 383.78125 295.472656 C 383.78125 282.21875 373.035156 271.472656 359.78125 271.472656 C 346.527344 271.472656 335.78125 282.21875 335.78125 295.472656 L 335.78125 327.472656 C 335.78125 331.890625 332.199219 335.472656 327.78125 335.472656 C 323.363281 335.472656 319.78125 331.890625 319.78125 327.472656 L 319.78125 295.472656 C 319.78125 273.382812 337.691406 255.472656 359.78125 255.472656 C 381.875 255.472656 399.78125 273.382812 399.78125 295.472656 L 399.78125 327.472656 C 399.78125 331.890625 396.199219 335.472656 391.78125 335.472656 Z M 391.78125 335.472656 " style=" stroke:none;fill-rule:nonzero;fill:rgb(94.509804%,94.901961%,94.901961%);fill-opacity:1;" data-original="#F1F2F2" class=""/>
<path d="M 215.78125 391.472656 C 118.578125 391.472656 39.78125 312.675781 39.78125 215.472656 C 39.78125 118.269531 118.578125 39.472656 215.78125 39.472656 C 312.984375 39.472656 391.78125 118.269531 391.78125 215.472656 C 391.78125 219.890625 388.199219 223.472656 383.78125 223.472656 C 379.363281 223.472656 375.78125 219.890625 375.78125 215.472656 C 375.78125 127.105469 304.148438 55.472656 215.78125 55.472656 C 127.417969 55.472656 55.78125 127.105469 55.78125 215.472656 C 55.78125 303.839844 127.417969 375.472656 215.78125 375.472656 C 220.199219 375.472656 223.78125 379.054688 223.78125 383.472656 C 223.78125 387.890625 220.199219 391.472656 215.78125 391.472656 Z M 215.78125 391.472656 " style=" stroke:none;fill-rule:nonzero;fill:rgb(94.509804%,94.901961%,94.901961%);fill-opacity:1;" data-original="#F1F2F2" class=""/>
</g></g> </svg>
